<svg xmlns="http://www.w3.org/2000/svg" viewBox="0 0 322 128" fill="none" fill-rule="nonzero" xmlns:v="https://vecta.io/nano">
    <style>
        .b { fill: #222; }
        @media (prefers-color-scheme: dark) {
            .b { fill: #DDD; }
        }
    </style>
    <path d="M163.338 51c3.097 0 5.415-.17 6.954-.51s2.831-.937 3.877-1.791 1.779-2.038 2.2-3.552.631-4.514.631-9.002h0v-17.95l-.43-9.088c-.287-1.616-1.005-3.083-2.154-4.401s-2.826-2.265-5.031-2.841S162.949 1 156.692 1H147v50h16.338zM160 42V9c1.383 0 2.326.15 2.827.449s.822.769.962 1.41.211 2.097.211 4.369v19.49c0 3.346-.211 5.397-.632 6.151S161.825 42 160 42h0zm36 10c2.813 0 5.277-.462 7.392-1.387s3.794-2.25 5.036-3.976 1.982-3.632 2.218-5.718.354-5.636.354-10.65v-8.538c0-5.137-.123-8.733-.37-10.788s-1.016-3.956-2.31-5.702-3.003-3.057-5.128-3.93S198.669 0 196 0c-2.813 0-5.277.462-7.392 1.387s-3.794 2.25-5.036 3.976-1.982 3.632-2.218 5.718-.354 5.636-.354 10.65v9.031c.008 4.875.131 8.307.369 10.296.246 2.055 1.016 3.956 2.31 5.702s3.003 3.057 5.128 3.93S193.331 52 196 52zm-.03-10c-.848 0-1.389-.328-1.621-.985S194 38.627 194 35.821V13.254c0-2.488.177-3.985.53-4.493s.864-.761 1.53-.761c.788 0 1.308.313 1.561.94s.379 2.065.379 4.313h0l-.001 22.533c-.009 2.659-.13 4.352-.363 5.079-.242.756-.798 1.134-1.667 1.134zm40.89 9V28.27L243.616 51H255V1h-10.86v22.514L236.86 1H226v50h10.86zM275 52c2.813 0 5.277-.462 7.392-1.387s3.794-2.25 5.036-3.976 1.982-3.632 2.218-5.718.354-5.636.354-10.65v-9.031c-.008-4.875-.131-8.307-.369-10.296-.246-2.055-1.016-3.956-2.31-5.702s-3.003-3.057-5.128-3.93S277.669 0 275 0c-2.813 0-5.277.462-7.392 1.387s-3.794 2.25-5.036 3.976-1.982 3.632-2.218 5.718-.354 5.636-.354 10.65h0v8.538c0 5.137.123 8.733.37 10.788s1.016 3.956 2.31 5.702 3.003 3.057 5.128 3.93S272.331 52 275 52zm-.03-10c-.848 0-1.389-.328-1.621-.985S273 38.627 273 35.821h0V13.254c0-2.488.177-3.985.53-4.493s.864-.761 1.53-.761c.788 0 1.308.313 1.561.94s.379 2.065.379 4.313h0v22.209c0 2.846-.121 4.647-.364 5.403S275.838 42 274.97 42zm38.422 9V11.006H321V1h-28v10.006h7.578V51h12.813zm-136.03 75.999c4.931-.017 8.209-.315 9.833-.895 1.673-.597 2.893-1.709 3.658-3.335s1.148-4.128 1.148-7.505h0v-4.632c0-3.253-.531-5.667-1.592-7.242s-3.082-2.702-6.061-3.382c2.673-.618 4.464-1.503 5.372-2.656s1.362-3.191 1.362-6.115c0-4.324-.643-7.458-1.929-9.404s-2.974-3.238-5.066-3.876-5.168-.957-9.23-.957h0H162v50l15.361-.001zM176 97V86c1.256.02 2.101.112 2.536.275s.787.555 1.058 1.176.406 1.706.406 3.254c0 2.933-.164 4.711-.493 5.332s-1.092.932-2.29.932A33.29 33.29 0 0 0 176 97h0zm0 22v-13c1.816.057 2.937.297 3.362.717s.638 1.626.638 3.616h0v4.333c0 1.875-.237 3.052-.71 3.53s-1.57.746-3.29.804h0zm35.483 9c2.721 0 5.083-.417 7.087-1.25s3.619-2.057 4.844-3.672 1.963-3.188 2.212-4.721.374-4.191.374-7.975h0V77h-13.115v36.808c0 2.489-.119 4.067-.358 4.736s-.774 1.003-1.604 1.003c-.727 0-1.21-.303-1.449-.91s-.358-2-.358-4.181h0V77H196v30.022c.006 5.375.11 8.917.312 10.626.208 1.759.883 3.43 2.025 5.014s2.866 2.869 5.171 3.857 4.964 1.481 7.975 1.481zM245 127V77h-13v50h13zm26 0v-10.006h-7.941V77H250v50h21zm19.338 0c3.097 0 5.415-.17 6.954-.51s2.831-.937 3.877-1.791 1.779-2.038 2.2-3.552.631-4.514.631-9.002v-17.95c-.009-4.493-.152-7.522-.43-9.088-.287-1.616-1.005-3.083-2.154-4.401s-2.826-2.265-5.031-2.841S289.949 77 283.692 77H274v50h16.338zM287 119V86c1.383 0 2.326.15 2.827.449s.822.769.962 1.41.211 2.097.211 4.369h0v19.49c0 3.346-.211 5.397-.632 6.151S288.825 119 287 119h0z" class="b"/>
    <g transform="matrix(-1 0 0 1 143.872 0)">
        <path d="M11.595 127.735C5.21 127.735 0 122.518 0 116.103c0-2.05.527-4.04 1.561-5.806L61.808 5.816c4.48-7.754 15.609-7.754 20.089 0l60.247 104.482a11.68 11.68 0 0 1 1.541 5.806c0 6.415-5.169 11.611-11.575 11.632H11.595h0z" fill="#ed171f"/>
        <path fill="#feb82f" d="M14.697 114.317h114.291L71.843 15.194z"/>
    </g>
    <path d="M76.348 51c3.349 0 6.065 2.765 6.065 6.175s-2.716 6.175-6.065 6.175-6.065-2.765-6.065-6.175S73 51 76.348 51h0zm4.671 51.957l2.906-5.036c1.036-1.607 2.212-3.18 3.749-4.857l.456-.478-16.681-7.405 4.175 6.634c.342.542.486 1.15.456 1.747l-.417 8.615c-.079 1.662-1.483 2.941-3.134 2.867a3.01 3.01 0 0 1-2.856-3.145l.372-7.674-5.856-9.306-3.967 17.314c-.372 1.622-1.978 2.633-3.595 2.264s-2.623-1.986-2.256-3.608l4.845-21.136L48 74.735l.878-4.728 2.707 1.199 3.173-5.634c.461-.816 1.25-1.334 2.102-1.483v-.005l8.891-1.533a2.98 2.98 0 0 1 1.81.254l10.909 4.663a3 3 0 0 1 1.755 2.135h.005l3.273 15.089c.05.239.074.478.069.712l8.008 3.553 5.544-5.823.055-.03.089-.025c5.385-1.319 9.972 14.263 10.874 17.976l.084.358c.669 2.742.962 3.946.417 4.499-.426.433-1.324.403-2.921.358-.739-.02-1.631-.05-2.697-.035a364.71 364.71 0 0 1-9.912-.02c-3.248-.05-6.431-.149-9.535-.299-.769-.04-1.398-.04-1.904-.045-.947-.005-1.473-.01-1.681-.244-.273-.309.04-.871.734-2.135l.293-.537h0zM64.642 68.964l-3.257 6.737-4.359-1.912 2.23-3.909 5.386-.916h0zm7.898 11.498l2.598-6.726 1.915 8.701-4.513-1.975h0z" fill="#222"/>
</svg>
