<?xml version="1.0" encoding="UTF-8"?>
<svg viewBox="-11.39 -11.39 2724.78 1037.28" version="1.1" xmlns:xlink="http://www.w3.org/1999/xlink" xmlns="http://www.w3.org/2000/svg">
<g id="SVG_KeyMap" fill="none" fill-rule="evenodd">
  <g stroke="#000000" stroke-width="5" fill-opacity="1.0">
    <rect id="K_00" x="6.195" y="62.445" width="212.61" height="212.61" rx="21.261" fill="#777777" />
    <rect id="L_00" x="18.585" y="74.835" width="187.83" height="161.25375" rx="24.78" stroke-opacity="0.3" fill="#FFFFFF" fill-opacity="0.4" />
    <rect id="K_01" x="231.195" y="62.445" width="212.61" height="212.61" rx="21.261" fill="#cccccc" />
    <rect id="L_01" x="243.585" y="74.835" width="187.83" height="161.25375" rx="24.78" stroke-opacity="0.3" fill="#FFFFFF" fill-opacity="0.4" />
    <rect id="K_02" x="456.195" y="62.445" width="212.61" height="212.61" rx="21.261" fill="#cccccc" />
    <rect id="L_02" x="468.585" y="74.835" width="187.83" height="161.25375" rx="24.78" stroke-opacity="0.3" fill="#FFFFFF" fill-opacity="0.4" />
    <rect id="K_03" x="681.195" y="62.445" width="212.61" height="212.61" rx="21.261" fill="#cccccc" />
    <rect id="L_03" x="693.585" y="74.835" width="187.83" height="161.25375" rx="24.78" stroke-opacity="0.3" fill="#FFFFFF" fill-opacity="0.4" />
    <rect id="K_04" x="906.195" y="62.445" width="212.61" height="212.61" rx="21.261" fill="#cccccc" />
    <rect id="L_04" x="918.585" y="74.835" width="187.83" height="161.25375" rx="24.78" stroke-opacity="0.3" fill="#FFFFFF" fill-opacity="0.4" />
    <rect id="K_05" x="1131.195" y="62.445" width="212.61" height="212.61" rx="21.261" fill="#cccccc" />
    <rect id="L_05" x="1143.585" y="74.835" width="187.83" height="161.25375" rx="24.78" stroke-opacity="0.3" fill="#FFFFFF" fill-opacity="0.4" />
    <rect id="K_06" x="1356.195" y="62.445" width="212.61" height="212.61" rx="21.261" fill="#cccccc" />
    <rect id="L_06" x="1368.585" y="74.835" width="187.83" height="161.25375" rx="24.78" stroke-opacity="0.3" fill="#FFFFFF" fill-opacity="0.4" />
    <rect id="K_07" x="1581.195" y="62.445" width="212.61" height="212.61" rx="21.261" fill="#cccccc" />
    <rect id="L_07" x="1593.585" y="74.835" width="187.83" height="161.25375" rx="24.78" stroke-opacity="0.3" fill="#FFFFFF" fill-opacity="0.4" />
    <rect id="K_08" x="1806.195" y="62.445" width="212.61" height="212.61" rx="21.261" fill="#cccccc" />
    <rect id="L_08" x="1818.585" y="74.835" width="187.83" height="161.25375" rx="24.78" stroke-opacity="0.3" fill="#FFFFFF" fill-opacity="0.4" />
    <rect id="K_09" x="2031.195" y="62.445" width="212.61" height="212.61" rx="21.261" fill="#cccccc" />
    <rect id="L_09" x="2043.585" y="74.835" width="187.83" height="161.25375" rx="24.78" stroke-opacity="0.3" fill="#FFFFFF" fill-opacity="0.4" />
    <rect id="K_10" x="2256.195" y="62.445" width="212.61" height="212.61" rx="21.261" fill="#cccccc" />
    <rect id="L_10" x="2268.585" y="74.835" width="187.83" height="161.25375" rx="24.78" stroke-opacity="0.3" fill="#FFFFFF" fill-opacity="0.4" />
    <rect id="K_11" x="2481.195" y="62.445" width="212.61" height="212.61" rx="21.261" fill="#aaaaaa" />
    <rect id="L_11" x="2493.585" y="74.835" width="187.83" height="161.25375" rx="24.78" stroke-opacity="0.3" fill="#FFFFFF" fill-opacity="0.4" />
    <rect id="K_12" x="6.195" y="287.445" width="268.86" height="212.61" rx="21.261" fill="#aaaaaa" />
    <rect id="L_12" x="18.585" y="299.835" width="244.08" height="161.25375" rx="24.78" stroke-opacity="0.3" fill="#FFFFFF" fill-opacity="0.4" />
    <rect id="K_13" x="287.445" y="287.445" width="212.61" height="212.61" rx="21.261" fill="#cccccc" />
    <rect id="L_13" x="299.835" y="299.835" width="187.83" height="161.25375" rx="24.78" stroke-opacity="0.3" fill="#FFFFFF" fill-opacity="0.4" />
    <rect id="K_14" x="512.445" y="287.445" width="212.61" height="212.61" rx="21.261" fill="#cccccc" />
    <rect id="L_14" x="524.835" y="299.835" width="187.83" height="161.25375" rx="24.78" stroke-opacity="0.3" fill="#FFFFFF" fill-opacity="0.4" />
    <rect id="K_15" x="737.445" y="287.445" width="212.61" height="212.61" rx="21.261" fill="#cccccc" />
    <rect id="L_15" x="749.835" y="299.835" width="187.83" height="161.25375" rx="24.78" stroke-opacity="0.3" fill="#FFFFFF" fill-opacity="0.4" />
    <rect id="K_16" x="962.445" y="287.445" width="212.61" height="212.61" rx="21.261" fill="#cccccc" />
    <rect id="L_16" x="974.835" y="299.835" width="187.83" height="161.25375" rx="24.78" stroke-opacity="0.3" fill="#FFFFFF" fill-opacity="0.4" />
    <rect id="K_17" x="1187.445" y="287.445" width="212.61" height="212.61" rx="21.261" fill="#cccccc" />
    <rect id="L_17" x="1199.835" y="299.835" width="187.83" height="161.25375" rx="24.78" stroke-opacity="0.3" fill="#FFFFFF" fill-opacity="0.4" />
    <rect id="K_18" x="1412.445" y="287.445" width="212.61" height="212.61" rx="21.261" fill="#cccccc" />
    <rect id="L_18" x="1424.835" y="299.835" width="187.83" height="161.25375" rx="24.78" stroke-opacity="0.3" fill="#FFFFFF" fill-opacity="0.4" />
    <rect id="K_19" x="1637.445" y="287.445" width="212.61" height="212.61" rx="21.261" fill="#cccccc" />
    <rect id="L_19" x="1649.835" y="299.835" width="187.83" height="161.25375" rx="24.78" stroke-opacity="0.3" fill="#FFFFFF" fill-opacity="0.4" />
    <rect id="K_20" x="1862.445" y="287.445" width="212.61" height="212.61" rx="21.261" fill="#cccccc" />
    <rect id="L_20" x="1874.835" y="299.835" width="187.83" height="161.25375" rx="24.78" stroke-opacity="0.3" fill="#FFFFFF" fill-opacity="0.4" />
    <rect id="K_21" x="2087.445" y="287.445" width="212.61" height="212.61" rx="21.261" fill="#cccccc" />
    <rect id="L_21" x="2099.835" y="299.835" width="187.83" height="161.25375" rx="24.78" stroke-opacity="0.3" fill="#FFFFFF" fill-opacity="0.4" />
    <rect id="K_22" x="2312.445" y="287.445" width="381.36" height="212.61" rx="21.261" fill="#aaaaaa" />
    <rect id="L_22" x="2324.835" y="299.835" width="356.58" height="161.25375" rx="24.78" stroke-opacity="0.3" fill="#FFFFFF" fill-opacity="0.4" />
    <rect id="K_23" x="6.195" y="512.445" width="381.36" height="212.61" rx="21.261" fill="#aaaaaa" />
    <rect id="L_23" x="18.585" y="524.835" width="356.58" height="161.25375" rx="24.78" stroke-opacity="0.3" fill="#FFFFFF" fill-opacity="0.4" />
    <rect id="K_24" x="399.945" y="512.445" width="212.61" height="212.61" rx="21.261" fill="#cccccc" />
    <rect id="L_24" x="412.335" y="524.835" width="187.83" height="161.25375" rx="24.78" stroke-opacity="0.3" fill="#FFFFFF" fill-opacity="0.4" />
    <rect id="K_25" x="624.945" y="512.445" width="212.61" height="212.61" rx="21.261" fill="#cccccc" />
    <rect id="L_25" x="637.335" y="524.835" width="187.83" height="161.25375" rx="24.78" stroke-opacity="0.3" fill="#FFFFFF" fill-opacity="0.4" />
    <rect id="K_26" x="849.945" y="512.445" width="212.61" height="212.61" rx="21.261" fill="#cccccc" />
    <rect id="L_26" x="862.335" y="524.835" width="187.83" height="161.25375" rx="24.78" stroke-opacity="0.3" fill="#FFFFFF" fill-opacity="0.4" />
    <rect id="K_27" x="1074.945" y="512.445" width="212.61" height="212.61" rx="21.261" fill="#cccccc" />
    <rect id="L_27" x="1087.335" y="524.835" width="187.83" height="161.25375" rx="24.78" stroke-opacity="0.3" fill="#FFFFFF" fill-opacity="0.4" />
    <rect id="K_28" x="1299.945" y="512.445" width="212.61" height="212.61" rx="21.261" fill="#cccccc" />
    <rect id="L_28" x="1312.335" y="524.835" width="187.83" height="161.25375" rx="24.78" stroke-opacity="0.3" fill="#FFFFFF" fill-opacity="0.4" />
    <rect id="K_29" x="1524.945" y="512.445" width="212.61" height="212.61" rx="21.261" fill="#cccccc" />
    <rect id="L_29" x="1537.335" y="524.835" width="187.83" height="161.25375" rx="24.78" stroke-opacity="0.3" fill="#FFFFFF" fill-opacity="0.4" />
    <rect id="K_30" x="1749.945" y="512.445" width="212.61" height="212.61" rx="21.261" fill="#cccccc" />
    <rect id="L_30" x="1762.335" y="524.835" width="187.83" height="161.25375" rx="24.78" stroke-opacity="0.3" fill="#FFFFFF" fill-opacity="0.4" />
    <rect id="K_31" x="1974.945" y="512.445" width="268.86" height="212.61" rx="21.261" fill="#aaaaaa" />
    <rect id="L_31" x="1987.335" y="524.835" width="244.08" height="161.25375" rx="24.78" stroke-opacity="0.3" fill="#FFFFFF" fill-opacity="0.4" />
    <rect id="K_32" x="2256.195" y="512.445" width="212.61" height="212.61" rx="21.261" fill="#777777" />
    <rect id="L_32" x="2268.585" y="524.835" width="187.83" height="161.25375" rx="24.78" stroke-opacity="0.3" fill="#FFFFFF" fill-opacity="0.4" />
    <rect id="K_33" x="2481.195" y="512.445" width="212.61" height="212.61" rx="21.261" fill="#aaaaaa" />
    <rect id="L_33" x="2493.585" y="524.835" width="187.83" height="161.25375" rx="24.78" stroke-opacity="0.3" fill="#FFFFFF" fill-opacity="0.4" />
    <rect id="K_34" x="6.195" y="737.445" width="268.86" height="212.61" rx="21.261" fill="#aaaaaa" />
    <rect id="L_34" x="18.585" y="749.835" width="244.08" height="161.25375" rx="24.78" stroke-opacity="0.3" fill="#FFFFFF" fill-opacity="0.4" />
    <rect id="K_35" x="287.445" y="737.445" width="212.61" height="212.61" rx="21.261" fill="#aaaaaa" />
    <rect id="L_35" x="299.835" y="749.835" width="187.83" height="161.25375" rx="24.78" stroke-opacity="0.3" fill="#FFFFFF" fill-opacity="0.4" />
    <rect id="K_36" x="512.445" y="737.445" width="268.86" height="212.61" rx="21.261" fill="#aaaaaa" />
    <rect id="L_36" x="524.835" y="749.835" width="244.08" height="161.25375" rx="24.78" stroke-opacity="0.3" fill="#FFFFFF" fill-opacity="0.4" />
    <rect id="K_37" x="793.695" y="737.445" width="493.86" height="212.61" rx="21.261" fill="#aaaaaa" />
    <rect id="L_37" x="806.085" y="749.835" width="469.08" height="161.25375" rx="24.78" stroke-opacity="0.3" fill="#FFFFFF" fill-opacity="0.4" />
    <rect id="K_38" x="1299.945" y="737.445" width="606.36" height="212.61" rx="21.261" fill="#cccccc" />
    <rect id="L_38" x="1312.335" y="749.835" width="581.58" height="161.25375" rx="24.78" stroke-opacity="0.3" fill="#FFFFFF" fill-opacity="0.4" />
    <rect id="K_39" x="2031.195" y="737.445" width="212.61" height="212.61" rx="21.261" fill="#777777" />
    <rect id="L_39" x="2043.585" y="749.835" width="187.83" height="161.25375" rx="24.78" stroke-opacity="0.3" fill="#FFFFFF" fill-opacity="0.4" />
    <rect id="K_40" x="2256.195" y="737.445" width="212.61" height="212.61" rx="21.261" fill="#777777" />
    <rect id="L_40" x="2268.585" y="749.835" width="187.83" height="161.25375" rx="24.78" stroke-opacity="0.3" fill="#FFFFFF" fill-opacity="0.4" />
    <rect id="K_41" x="2481.195" y="737.445" width="212.61" height="212.61" rx="21.261" fill="#777777" />
    <rect id="L_41" x="2493.585" y="749.835" width="187.83" height="161.25375" rx="24.78" stroke-opacity="0.3" fill="#FFFFFF" fill-opacity="0.4" />
  </g>
  <g font-family="Helvetica" font-size="48" font-weight="normal">
    <text id="T_00" x="112.5" y="162.555" fill="#000000" text-anchor="middle" alignment-baseline="middle">Esc</text>
    <text id="T_01" x="337.5" y="162.555" fill="#000000" text-anchor="middle" alignment-baseline="middle">Q</text>
    <text id="T_02" x="562.5" y="162.555" fill="#000000" text-anchor="middle" alignment-baseline="middle">W</text>
    <text id="T_03" x="787.5" y="162.555" fill="#000000" text-anchor="middle" alignment-baseline="middle">E</text>
    <text id="T_04" x="1012.5" y="162.555" fill="#000000" text-anchor="middle" alignment-baseline="middle">R</text>
    <text id="T_05" x="1237.5" y="162.555" fill="#000000" text-anchor="middle" alignment-baseline="middle">T</text>
    <text id="T_06" x="1462.5" y="162.555" fill="#000000" text-anchor="middle" alignment-baseline="middle">Y</text>
    <text id="T_07" x="1687.5" y="162.555" fill="#000000" text-anchor="middle" alignment-baseline="middle">U</text>
    <text id="T_08" x="1912.5" y="162.555" fill="#000000" text-anchor="middle" alignment-baseline="middle">I</text>
    <text id="T_09" x="2137.5" y="162.555" fill="#000000" text-anchor="middle" alignment-baseline="middle">O</text>
    <text id="T_10" x="2362.5" y="162.555" fill="#000000" text-anchor="middle" alignment-baseline="middle">P</text>
    <text id="T_11" x="2587.5" y="162.555" fill="#000000" text-anchor="middle" alignment-baseline="middle">Backsp</text>
    <text id="T_12" x="140.625" y="387.555" fill="#000000" text-anchor="middle" alignment-baseline="middle">Tab</text>
    <text id="T_13" x="393.75" y="387.555" fill="#000000" text-anchor="middle" alignment-baseline="middle">A</text>
    <text id="T_14" x="618.75" y="387.555" fill="#000000" text-anchor="middle" alignment-baseline="middle">S</text>
    <text id="T_15" x="843.75" y="387.555" fill="#000000" text-anchor="middle" alignment-baseline="middle">D</text>
    <text id="T_16" x="1068.75" y="387.555" fill="#000000" text-anchor="middle" alignment-baseline="middle">F</text>
    <text id="T_17" x="1293.75" y="387.555" fill="#000000" text-anchor="middle" alignment-baseline="middle">G</text>
    <text id="T_18" x="1518.75" y="387.555" fill="#000000" text-anchor="middle" alignment-baseline="middle">H</text>
    <text id="T_19" x="1743.75" y="387.555" fill="#000000" text-anchor="middle" alignment-baseline="middle">J</text>
    <text id="T_20" x="1968.75" y="387.555" fill="#000000" text-anchor="middle" alignment-baseline="middle">K</text>
    <text id="T_21" x="2193.75" y="387.555" fill="#000000" text-anchor="middle" alignment-baseline="middle">L</text>
    <text id="T_22" x="2503.125" y="387.555" fill="#000000" text-anchor="middle" alignment-baseline="middle">Enter</text>
    <text id="T_23" x="196.875" y="612.555" fill="#000000" text-anchor="middle" alignment-baseline="middle">Shift</text>
    <text id="T_24" x="506.25" y="612.555" fill="#000000" text-anchor="middle" alignment-baseline="middle">Z</text>
    <text id="T_25" x="731.25" y="612.555" fill="#000000" text-anchor="middle" alignment-baseline="middle">X</text>
    <text id="T_26" x="956.25" y="612.555" fill="#000000" text-anchor="middle" alignment-baseline="middle">C</text>
    <text id="T_27" x="1181.25" y="612.555" fill="#000000" text-anchor="middle" alignment-baseline="middle">V</text>
    <text id="T_28" x="1406.25" y="612.555" fill="#000000" text-anchor="middle" alignment-baseline="middle">B</text>
    <text id="T_29" x="1631.25" y="612.555" fill="#000000" text-anchor="middle" alignment-baseline="middle">N</text>
    <text id="T_30" x="1856.25" y="612.555" fill="#000000" text-anchor="middle" alignment-baseline="middle">M</text>
    <text id="T_31" x="2109.375" y="612.555" fill="#000000" text-anchor="middle" alignment-baseline="middle">Shift</text>
    <text id="T_32" x="2362.5" y="612.555" fill="#000000" text-anchor="middle" alignment-baseline="middle">⇧</text>
    <text id="T_33" x="2587.5" y="612.555" fill="#000000" text-anchor="middle" alignment-baseline="middle">Del</text>
    <text id="T_34" x="140.625" y="837.555" fill="#000000" text-anchor="middle" alignment-baseline="middle">Ctrl</text>
    <text id="T_35" x="393.75" y="837.555" fill="#000000" text-anchor="middle" alignment-baseline="middle">Win</text>
    <text id="T_36" x="646.875" y="837.555" fill="#000000" text-anchor="middle" alignment-baseline="middle">Alt</text>
    <text id="T_37" x="1040.625" y="837.555" fill="#000000" text-anchor="middle" alignment-baseline="middle"></text>
    <text id="T_38" x="1603.125" y="837.555" fill="#000000" text-anchor="middle" alignment-baseline="middle"></text>
    <text id="T_39" x="2137.5" y="837.555" fill="#000000" text-anchor="middle" alignment-baseline="middle">⇦</text>
    <text id="T_40" x="2362.5" y="837.555" fill="#000000" text-anchor="middle" alignment-baseline="middle">⇩</text>
    <text id="T_41" x="2587.5" y="837.555" fill="#000000" text-anchor="middle" alignment-baseline="middle">⇨</text>
    <text id="T_42" x="1968.75" y="893.805" fill="#000000" text-anchor="middle" alignment-baseline="middle"></text>
  </g>
</g>
</svg>